<svg width="679" height="158" viewBox="0 0 679 158" fill="none" xmlns="http://www.w3.org/2000/svg">
<g clip-path="url(#clip0_29_90)">
<path d="M142.108 0.0569458H78.947V110.583H110.53V63.1689H118.423C120.517 63.1708 122.525 64.004 124.005 65.4853C125.485 66.9666 126.316 68.975 126.316 71.069V110.583H157.899V15.849C157.899 13.7752 157.491 11.7217 156.697 9.80573C155.904 7.88976 154.741 6.14881 153.274 4.68237C151.808 3.21594 150.067 2.05273 148.151 1.25909C146.235 0.46546 144.182 0.0569458 142.108 0.0569458ZM126.316 47.383H110.53V15.849H118.423C120.516 15.849 122.524 16.6805 124.004 18.1608C125.484 19.641 126.316 21.6486 126.316 23.7419V47.383Z" fill="black"/>
<path d="M252.64 71.054V94.696H236.856V63.161H244.749C246.842 63.1634 248.848 63.9958 250.327 65.4756C251.806 66.9554 252.638 68.9616 252.64 71.054Z" fill="black"/>
<path d="M315.801 0.000976562L315.871 31.582L205.338 30.682L205.268 157.899H173.69V-0.0010376L315.801 0.000976562Z" fill="black"/>
<path d="M410.539 15.793C410.539 13.7191 410.131 11.6655 409.337 9.74945C408.544 7.83342 407.38 6.09249 405.914 4.62604C404.448 3.15959 402.707 1.9964 400.791 1.20282C398.875 0.409244 396.821 0.000845257 394.747 0.000976594H331.586V110.532H356.503V110.587H387.738V110.532H410.538L410.539 15.793ZM363.169 15.793H371.062C373.156 15.793 375.163 16.6245 376.644 18.1047C378.124 19.5849 378.956 21.5925 378.956 23.686V94.741L363.168 94.697L363.169 15.793Z" fill="black"/>
<path d="M678.979 63.166V15.792C678.979 7.07199 671.913 0 655.124 0H426.325V157.9H521.061L521.071 47.367H473.696V94.737H489.482V126.326H457.904V31.579H600.025V47.371H584.235C586.309 47.3708 588.363 47.7793 590.279 48.5731C592.195 49.3669 593.936 50.5305 595.402 51.9973C596.869 53.464 598.032 55.2053 598.825 57.1217C599.618 59.0381 600.026 61.0919 600.025 63.166V157.908H631.606V94.828H639.506C640.543 94.828 641.57 95.0324 642.528 95.4294C643.487 95.8265 644.357 96.4086 645.09 97.1422C645.823 97.8759 646.405 98.7468 646.801 99.7053C647.197 100.664 647.401 101.691 647.4 102.728V157.906H678.979V94.666C678.977 90.6577 677.451 86.8003 674.71 83.8756C671.969 80.9509 668.219 79.1779 664.219 78.916C668.219 78.6538 671.969 76.8807 674.71 73.9561C677.451 71.0315 678.977 67.1741 678.979 63.166ZM647.233 63.139H631.441V31.601H639.341C641.434 31.6028 643.44 32.435 644.92 33.9149C646.4 35.3947 647.232 37.4012 647.234 39.494L647.233 63.139Z" fill="black"/>
<path d="M410.539 126.326V157.905H284.224V63.163C284.224 61.0892 283.816 59.0355 283.022 57.1195C282.229 55.2035 281.066 53.4625 279.599 51.9961C278.133 50.5296 276.392 49.3664 274.476 48.5728C272.56 47.7792 270.506 47.3709 268.432 47.371H315.798V126.326H410.539Z" fill="black"/>
<path d="M252.64 118.38V157.902H236.856V110.481H244.749C246.843 110.483 248.849 111.317 250.329 112.798C251.809 114.279 252.64 116.286 252.64 118.38Z" fill="black"/>
<path d="M568.432 71.054V94.696H552.646V63.161H560.541C562.633 63.1634 564.64 63.9958 566.119 65.4756C567.598 66.9554 568.43 68.9616 568.432 71.054Z" fill="black"/>
<path d="M568.432 118.38V157.902H552.646V110.481H560.541C562.634 110.483 564.641 111.317 566.121 112.798C567.601 114.279 568.432 116.286 568.432 118.38Z" fill="black"/>
<path d="M157.896 125.912V157.905H78.5161C35.1161 157.666 -0.00292969 122.071 -0.00292969 78.1819C-0.00292969 39.6139 27.1201 7.44197 63.1561 0.0559692V31.5829C44.8401 38.1649 31.7271 57.406 31.7271 78.159C31.7271 104.359 52.6331 125.638 78.5161 125.912H78.6161C78.7511 125.918 78.8871 125.918 79.0231 125.918C79.1591 125.918 79.2941 125.918 79.4301 125.912H157.896Z" fill="black"/>
</g>
<defs>
<clipPath id="clip0_29_90">
<rect width="678.979" height="157.905" fill="white"/>
</clipPath>
</defs>
</svg>
